<svg width="3717" height="2835" viewBox="0 0 3717 2835" fill="none" xmlns="http://www.w3.org/2000/svg">
<g clip-path="url(#clip0)">
<path d="M2657.65 1938.52C2657.65 2195.08 2519.15 2284.66 2348.31 2284.66C2177.47 2284.66 2038.97 2195.08 2038.97 1938.52C2038.97 1681.95 2348.31 1355.57 2348.31 1355.57C2348.31 1355.57 2657.65 1681.95 2657.65 1938.52Z" fill="#6C63FF"/>
<path d="M2340.21 2030.7L2472.05 1765.06L2340.7 1997.01L2342.13 1900.47L2433 1708.28L2342.51 1874.91L2345.07 1701.27L2442.37 1548.27L2345.47 1673.97L2347.07 1355.57L2337.44 1759.02L2238.91 1592.92L2336.25 1793.06L2327.03 1986.99L2326.76 1981.84L2212.71 1806.35L2326.41 2000.03L2325.26 2024.28L2325.05 2024.65L2325.15 2026.64L2301.76 2285.43H2333.01L2336.76 2264.52L2450.18 2071.31L2337.04 2245.42L2340.21 2030.7Z" fill="#3F3D56"/>
<path d="M3717 1113.58C3717 1603.68 3452.44 1774.81 3126.09 1774.81C2799.74 1774.81 2535.18 1603.68 2535.18 1113.58C2535.18 623.483 3126.09 0 3126.09 0C3126.09 0 3717 623.483 3717 1113.58Z" fill="#F2F2F2"/>
<path d="M3104.56 1699.84L3110.61 1289.67L3362.48 782.23L3111.56 1225.32L3114.29 1040.89L3287.87 673.769L3115.01 992.088V992.092L3119.9 660.386L3305.77 368.109L3120.67 608.227L3123.73 0L3104.51 805.183L3106.09 771.967L2917.11 453.402L3103.06 835.728L3085.45 1206.18L3084.93 1196.35L2867.07 861.11L3084.27 1231.09L3082.07 1277.42L3081.67 1278.12L3081.85 1281.92L3037.18 2221.79H3096.86L3104.03 1736.33L3320.69 1367.26L3104.56 1699.84Z" fill="#3F3D56"/>
<path d="M3692.74 2139.73C3692.74 2286.01 2831.09 2835 1823.82 2835C816.554 2835 0 2550.88 0 2404.6C0 2258.31 796.512 2432.19 1803.78 2432.19C2811.05 2432.19 3692.74 1993.45 3692.74 2139.73Z" fill="#3F3D56"/>
<path opacity="0.1" d="M3692.74 2139.73C3692.74 2286.01 2831.09 2835 1823.82 2835C816.554 2835 0 2550.88 0 2404.6C0 2258.31 796.512 2432.19 1803.78 2432.19C2811.05 2432.19 3692.74 1993.45 3692.74 2139.73Z" fill="black"/>
<path d="M3692.74 2139.73C3692.74 2286.01 2831.09 2669.46 1823.82 2669.46C816.554 2669.46 0 2550.88 0 2404.6C0 2258.31 796.511 2266.65 1803.78 2266.65C2811.05 2266.65 3692.74 1993.45 3692.74 2139.73Z" fill="#3F3D56"/>
<path opacity="0.1" d="M1844.23 2498.36C2271.97 2498.36 2618.72 2468.82 2618.72 2432.38C2618.72 2395.95 2271.97 2366.41 1844.23 2366.41C1416.49 2366.41 1069.74 2395.95 1069.74 2432.38C1069.74 2468.82 1416.49 2498.36 1844.23 2498.36Z" fill="black"/>
<path d="M2459.81 1163.15L2436.19 1137.14C2422.41 1121.97 2403.73 1113.44 2384.24 1113.44C2364.76 1113.44 2346.08 1121.97 2332.3 1137.14L1874.18 1641.66L1416.07 1137.14C1402.29 1121.97 1383.61 1113.44 1364.12 1113.44C1344.64 1113.44 1325.96 1121.97 1312.18 1137.14L1288.56 1163.15C1281.74 1170.66 1276.33 1179.58 1272.64 1189.4C1268.95 1199.21 1267.05 1209.73 1267.05 1220.35C1267.05 1230.98 1268.95 1241.5 1272.64 1251.31C1276.33 1261.13 1281.74 1270.05 1288.56 1277.56L1746.68 1782.08L1288.56 2286.6C1281.74 2294.11 1276.33 2303.03 1272.64 2312.84C1268.95 2322.66 1267.05 2333.18 1267.05 2343.8C1267.05 2354.43 1268.95 2364.95 1272.64 2374.76C1276.33 2384.58 1281.74 2393.49 1288.56 2401.01L1312.18 2427.02C1325.96 2442.19 1344.64 2450.71 1364.12 2450.71C1383.61 2450.71 1402.29 2442.19 1416.07 2427.02L1874.18 1922.5L2332.3 2427.02C2346.08 2442.19 2364.76 2450.71 2384.24 2450.71C2403.73 2450.71 2422.41 2442.19 2436.19 2427.02L2459.81 2401.01C2473.58 2385.83 2481.32 2365.26 2481.32 2343.8C2481.32 2322.35 2473.58 2301.77 2459.81 2286.6L2001.69 1782.08L2459.81 1277.56C2473.58 1262.39 2481.32 1241.81 2481.32 1220.35C2481.32 1198.9 2473.58 1178.32 2459.81 1163.15V1163.15Z" fill="#FF6584"/>
<path opacity="0.1" d="M1272.21 2314.03L1716.73 1824.49L1712.45 1819.78L1288.56 2286.6C1281.46 2294.41 1275.9 2303.75 1272.21 2314.03V2314.03Z" fill="black"/>
<path opacity="0.1" d="M1282.23 1179.55C1296 1164.38 1314.69 1155.86 1334.17 1155.86C1353.65 1155.86 1372.34 1164.38 1386.11 1179.55L1844.23 1684.07L2302.35 1179.55C2316.13 1164.38 2334.81 1155.86 2354.29 1155.86C2373.77 1155.86 2392.46 1164.38 2406.23 1179.55L2429.85 1205.56C2439.99 1216.72 2446.93 1230.9 2449.84 1246.36C2452.74 1261.81 2451.48 1277.87 2446.2 1292.54L2459.81 1277.56C2466.63 1270.05 2472.04 1261.13 2475.73 1251.31C2479.42 1241.5 2481.32 1230.98 2481.32 1220.35C2481.32 1209.73 2479.42 1199.21 2475.73 1189.4C2472.04 1179.58 2466.63 1170.66 2459.81 1163.15L2436.19 1137.14C2422.41 1121.97 2403.73 1113.44 2384.24 1113.44C2364.76 1113.44 2346.08 1121.97 2332.3 1137.14L1874.18 1641.66L1416.07 1137.14C1402.29 1121.97 1383.61 1113.44 1364.12 1113.44C1344.64 1113.44 1325.96 1121.97 1312.18 1137.14L1288.56 1163.15C1281.46 1170.96 1275.9 1180.3 1272.21 1190.58L1282.23 1179.55Z" fill="black"/>
<path opacity="0.1" d="M2005.97 1786.79L1971.74 1824.49L2429.85 2329.01C2439.99 2340.17 2446.93 2354.35 2449.84 2369.81C2452.74 2385.26 2451.48 2401.31 2446.2 2415.99L2459.81 2401.01C2466.63 2393.49 2472.04 2384.58 2475.73 2374.76C2479.42 2364.95 2481.32 2354.43 2481.32 2343.8C2481.32 2333.18 2479.42 2322.66 2475.73 2312.84C2472.04 2303.03 2466.63 2294.11 2459.81 2286.6L2005.97 1786.79Z" fill="black"/>
</g>
<defs>
<clipPath id="clip0">
<rect width="3717" height="2835" fill="white"/>
</clipPath>
</defs>
</svg>
