<?xml version="1.0" encoding="utf-8"?>
<!-- Generator: Adobe Illustrator 17.0.0, SVG Export Plug-In . SVG Version: 6.00 Build 0)  -->
<!DOCTYPE svg PUBLIC "-//W3C//DTD SVG 1.1//EN" "http://www.w3.org/Graphics/SVG/1.1/DTD/svg11.dtd">
<svg version="1.1" id="图层_1" xmlns="http://www.w3.org/2000/svg" xmlns:xlink="http://www.w3.org/1999/xlink" x="0px" y="0px"
	 width="1000px" height="1000px" viewBox="0 0 1000 1000" enable-background="new 0 0 1000 1000" xml:space="preserve">
<path fill="#ffc107" d="M665.356,499.321c29.674,0,48.144-26.949,48.144-73.882c0-43.603-18.47-69.34-48.144-69.34
	c-29.675,0-47.842,25.738-47.842,69.34C617.514,472.371,635.681,499.321,665.356,499.321z"/>
<path fill="#ffc107" d="M467.325,426.65c-6.056-22.407-11.809-49.356-17.865-72.368h-1.211
	c-5.45,23.618-11.506,49.961-17.259,72.368l-4.845,19.076h46.025L467.325,426.65z"/>
<path fill="#ffc107" d="M193.941,820h740.182V80.144C934.123,35.885,898.29,0,854.087,0H134.159
	C89.985,0,54.123,35.882,54.123,80.144v839.712c0,44.259,35.833,80.144,80.036,80.145h719.928c44.127,0,79.959-35.804,80.036-80
	H193.941c-21.991,0-39.818-17.878-39.818-40.098v-19.805C154.123,837.952,171.904,820,193.941,820z M665.356,309.77
	c61.467,0,103.253,42.089,103.253,115.668c0,59.954-27.555,100.528-70.854,113.548c10.295,15.442,30.583,21.196,48.75,21.196
	c9.689,0,18.471-1.817,25.436-4.239l9.386,39.363c-8.478,4.542-23.012,7.57-40.877,7.57c-49.053,0-83.269-25.737-99.619-61.77
	c-47.842-10.598-78.728-52.081-78.728-115.668C562.102,351.556,603.888,309.77,665.356,309.77z M482.465,314.01l69.946,225.28
	h-56.926l-13.02-51.778h-66.615l-13.02,51.778h-55.109l69.946-225.28H482.465z M206.92,314.01h143.828v44.814H261.12v49.355h76.91
	v45.116h-76.91v85.994h-54.2V314.01z"/>
</svg>
