<?xml version="1.0" encoding="utf-8"?>
<!-- Generator: Adobe Illustrator 17.0.0, SVG Export Plug-In . SVG Version: 6.00 Build 0)  -->
<!DOCTYPE svg PUBLIC "-//W3C//DTD SVG 1.1//EN" "http://www.w3.org/Graphics/SVG/1.1/DTD/svg11.dtd">
<svg version="1.1" id="图层_1" xmlns="http://www.w3.org/2000/svg" xmlns:xlink="http://www.w3.org/1999/xlink" x="0px" y="0px"
	 width="1000px" height="1000px" viewBox="0 0 1000 1000" enable-background="new 0 0 1000 1000" xml:space="preserve">
<path fill="#ffc107" d="M285.788,781.251L67.515,959.669c-29.38,23.19-72.07-1.11-67.12-38.21L0.143,781.251H0v-625
	c0-68.75,56.25-125,125-125h750c68.75,0,125,56.25,125,125v500c0,68.75-56.25,125-125,125H285.788z M718.75,531.251
	c17.19,0,31.25-14.06,31.25-31.25c0-17.185-14.06-31.25-31.25-31.25h-437.5c-17.19,0-31.25,14.065-31.25,31.25
	c0,17.19,14.06,31.25,31.25,31.25H718.75z M718.75,343.751c17.19,0,31.25-14.065,31.25-31.25c0-17.19-14.06-31.25-31.25-31.25
	h-437.5c-17.19,0-31.25,14.06-31.25,31.25c0,17.185,14.06,31.25,31.25,31.25H718.75z"/>
</svg>
