<?xml version="1.0" encoding="utf-8"?>
<!-- Generator: Adobe Illustrator 17.0.0, SVG Export Plug-In . SVG Version: 6.00 Build 0)  -->
<!DOCTYPE svg PUBLIC "-//W3C//DTD SVG 1.1//EN" "http://www.w3.org/Graphics/SVG/1.1/DTD/svg11.dtd">
<svg version="1.1" id="图层_1" xmlns="http://www.w3.org/2000/svg" xmlns:xlink="http://www.w3.org/1999/xlink" x="0px" y="0px"
	 width="1000px" height="1000px" viewBox="0 0 1000 1000" enable-background="new 0 0 1000 1000" xml:space="preserve">
<g>
	<defs>
		<path id="SVGID_1_" d="M594.868,166.905c-11.542-2.721-23.209-2.876-34.192,2.072c-27.894,12.463-38.94,35.842-41.422,62.251
			c0.434,14.442,3.227,25.76,10.86,35.316c11.17,14.009,25.846,19.482,43.749,18.555c15.266-0.804,28.173-6.958,38.536-17.07
			c20.292-19.792,27.118-43.573,16.91-70.972C623.289,180.851,611.592,170.894,594.868,166.905z M596.14,691.715
			c-4.406,2.289-8.657,4.917-12.783,7.669c-11.542,7.638-22.557,16.112-34.565,22.946c-6.485,3.649-14.397,5.69-21.875,6.556
			c-8.843,1.02-16.414-10.081-14.583-18.091c8.191-35.594,16.352-71.22,25.505-106.597c15.855-61.138,32.548-122.091,48.62-183.198
			c3.879-14.72,4.747-29.842,1.613-44.872c-2.389-11.69-7.477-21.74-19.485-26.193c-9.805-3.618-20.106-3.093-29.228,1.237
			c-16.103,7.639-32.61,15.184-47.162,25.296c-34.286,23.781-67.516,49.016-101.15,73.755c-8.129,5.969-16.134,12.153-24.791,18.709
			c3.382,5.721,6.33,11.195,9.712,16.359c2.234,3.433,8.005,3.866,11.139,1.639c9.619-6.834,18.896-14.287,29.042-20.194
			c11.729-6.834,24.046-12.803,36.52-18.153c8.129-3.495,17.934,0.649,18.648,7.02c0.621,5.628,0.838,11.628-0.465,17.009
			c-12.38,51.459-25.443,102.732-37.637,154.221c-9.401,39.46-18.275,79.105-26.342,118.874
			c-3.351,16.483,1.396,32.007,12.07,45.521c11.232,14.194,31.71,19.761,48.31,12.648c31.028-13.328,59.449-31.265,87.529-49.696
			c20.478-13.483,40.584-27.585,61.497-41.841c-2.792-6.03-5.089-11.442-7.819-16.607
			C605.665,690.385,601.29,688.994,596.14,691.715z M500,1000C224.286,1000,0,775.719,0,499.988C0,224.305,224.286,0,500,0
			s500,224.305,500,499.988C1000,775.719,775.714,1000,500,1000z"/>
	</defs>
	<use xlink:href="#SVGID_1_"  overflow="visible" fill="#ffc107"/>
	<clipPath id="SVGID_2_">
		<use xlink:href="#SVGID_1_"  overflow="visible"/>
	</clipPath>
	<g clip-path="url(#SVGID_2_)">
		<defs>
			<rect id="SVGID_3_" x="-14979.169" y="-55586.711" width="30000" height="68750"/>
		</defs>
		<use xlink:href="#SVGID_3_"  overflow="visible" fill="#ffc107"/>
		<clipPath id="SVGID_4_">
			<use xlink:href="#SVGID_3_"  overflow="visible"/>
		</clipPath>
		<rect x="-104.167" y="-104.167" clip-path="url(#SVGID_4_)" fill="#ffc107" width="1208.333" height="1208.333"/>
	</g>
</g>
</svg>
