<?xml version="1.0" encoding="utf-8"?>
<!-- Generator: Adobe Illustrator 17.0.0, SVG Export Plug-In . SVG Version: 6.00 Build 0)  -->
<!DOCTYPE svg PUBLIC "-//W3C//DTD SVG 1.1//EN" "http://www.w3.org/Graphics/SVG/1.1/DTD/svg11.dtd">
<svg version="1.1" id="图层_1" xmlns="http://www.w3.org/2000/svg" xmlns:xlink="http://www.w3.org/1999/xlink" x="0px" y="0px"
	 width="1000px" height="1000px" viewBox="0 0 1000 1000" enable-background="new 0 0 1000 1000" xml:space="preserve">
<path fill="#ffc107" d="M0,104.225c0-46.056,37.376-83.392,83.539-83.392h832.921c46.138,0,83.539,37.457,83.539,83.392v437.441H0
	V104.225z M479.167,937.5V770.833H83.539C37.376,770.833,0,733.524,0,687.501V583.333h1000v104.168
	c0,45.839-37.402,83.332-83.539,83.332H520.833V937.5h270.872c11.485,0,20.795,9.247,20.795,20.833
	c0,11.506-9.32,20.833-20.795,20.833h-583.41c-11.485,0-20.795-9.247-20.795-20.833c0-11.506,9.32-20.833,20.795-20.833H479.167z"/>
</svg>
