<?xml version="1.0" encoding="utf-8"?>
<!-- Generator: Adobe Illustrator 17.0.0, SVG Export Plug-In . SVG Version: 6.00 Build 0)  -->
<!DOCTYPE svg PUBLIC "-//W3C//DTD SVG 1.1//EN" "http://www.w3.org/Graphics/SVG/1.1/DTD/svg11.dtd">
<svg version="1.1" id="图层_1" xmlns="http://www.w3.org/2000/svg" xmlns:xlink="http://www.w3.org/1999/xlink" x="0px" y="0px"
	 width="1000px" height="1000px" viewBox="0 0 1000 1000" enable-background="new 0 0 1000 1000" xml:space="preserve">
<path fill="#ffc107" d="M670.96,455.999c16.932,0,30.538,0.062,44.149-0.034c4.478-0.034,10.092,1.254,10.104-6.164
	c0.028-31.435,0.011-62.869,0.011-94.304c-0.976-0.097-1.947-0.193-2.923-0.284C705.568,388.061,688.835,420.909,670.96,455.999z
	 M782.276,390.768c0.011,17.778,0.199,35.556-0.079,53.333c-0.114,7.016,0.528,11.647,9.485,12.465
	c14.032,1.283,24.294,9.326,24.22,23.931c-0.068,14.434-9.666,22.807-24.203,23.675c-7.566,0.454-9.996,3.565-9.496,10.705
	c0.431,6.244,0.159,12.539,0.068,18.816c-0.318,20.843-9.326,29.766-29.63,29.448c-19.645-0.312-27.285-8.582-27.319-29.59
	c-0.051-28.949-0.051-28.949-29.749-28.949c-21.961-0.006-43.922-0.051-65.883-0.006c-10.348,0.023-20.48-1.22-25.435-11.721
	c-4.552-9.638-2.163-18.465,3.553-27.91c29.193-48.242,57.517-97.012,86.244-145.537c13.294-22.461,31.866-29.681,57.193-22.574
	c20.094,5.636,30.56,20.707,30.969,45.285C782.48,358.346,782.264,374.557,782.276,390.768z M476.469,513.512
	c25.952,0,47.924-0.42,69.874,0.153c13.526,0.358,26.576,3.462,30.878,18.953c4.28,15.399-5.767,29.851-22.994,30.169
	c-47.084,0.857-94.19,0.5-141.286,0.108c-9.678-0.085-19.038-3.644-22.841-13.742c-4.206-11.154-1.907-21.49,6.471-30.413
	c25.429-27.075,50.989-54.037,75.976-81.516c9.116-10.03,16.802-21.365,25.072-32.155c4.501-5.875,7.674-12.488,9.598-19.6
	c4.189-15.479-2.577-31.48-15.553-37.292c-13.793-6.181-29.073-1.476-37.911,12.953c-4.864,7.93-7.725,17.068-11.699,25.56
	c-7.867,16.796-20.287,22.086-37.19,16.03c-12.295-4.41-16.501-15.865-14.185-32.559c9.57-69.051,99.248-96.784,152.996-55.468
	c24.975,19.197,33.382,54.843,20.241,85.018c-11.835,27.178-30.39,49.899-49.865,71.872
	C502.376,484.762,490.552,497.811,476.469,513.512z M987.09,476.584C958.817,606.523,882.427,698.641,765.964,759.49
	c-14.452,7.549-29.187,9.019-42.52-2.384c-19.912-17.023-15.116-43.343,11.137-57.426c23.142-12.42,45.358-26.054,65.554-42.827
	C988.64,500.31,955.06,217.239,734.132,107.973c-108.807-53.816-219.589-53.68-330.098-3.468
	c-30.941,14.054-50.927,10.614-61.865-11.903c-9.212-18.964,1.232-34.727,32.712-49.434c42.492-19.844,87.152-32.156,133.515-38.621
	c3.292-0.46,8.418-1.867,13.402-2.679c11.721-1.918,60.542-3.116,86.709,0.278c20.054,2.605,42.884,5.977,62.228,11.205
	C831.569,56.802,940.517,153.706,984.19,317.634c5.006,18.788,10.484,59.742,10.484,83.9
	C994.674,435.511,989.9,463.682,987.09,476.584z M483.258,997.228c0,0-129.553-86.789-182.387-144.01
	C163.462,704.399,68.63,531.912,22.875,333.717C11.199,283.136,4.773,231.789,5.364,179.693
	c0.426-36.776,17.301-59.424,52.891-69.754c50.671-14.707,101.342-29.414,152.053-43.985c34.716-9.979,59.821,1.504,74.074,33.904
	c21.887,49.729,43.661,99.509,65.367,149.312c13.47,30.907,4.791,56.654-24.879,72.712c-29.874,16.166-59.719,32.445-90.172,47.476
	c-17.233,8.509-24.26,21.672-25.163,39.875c-1.725,34.704,7.39,67.319,18.51,99.589c21.133,61.286,54.253,115.243,99.662,161.487
	c8.015,8.162,17.182,15.337,26.485,22.052c18.113,13.066,36.345,14.957,56.841,2.94c27.473-16.109,56.171-30.141,84.507-44.751
	c30.748-15.848,57.891-9.457,78.473,18.555c33.149,45.126,66.156,90.348,98.998,135.689c18.748,25.878,15.553,53.226-8.889,73.756
	c-41.686,35.016-83.939,69.363-125.404,104.629c-9.156,7.788-30.322,14.049-30.322,14.049s-5.886,2.015-12.346,2.662
	C488.52,1000.65,483.258,997.228,483.258,997.228z"/>
</svg>
