<?xml version="1.0" encoding="utf-8"?>
<!-- Generator: Adobe Illustrator 23.0.5, SVG Export Plug-In . SVG Version: 6.00 Build 0)  -->
<svg version="1.1" id="Layer_1" xmlns="http://www.w3.org/2000/svg" xmlns:xlink="http://www.w3.org/1999/xlink" x="0px" y="0px"
	 viewBox="0 0 348.7 310.5" style="enable-background:new 0 0 348.7 310.5;" xml:space="preserve">
<style type="text/css">
	.st0{fill:#33E2FF;}
	.st1{fill:#FFFFFF;}
	.st2{fill:#303087;}
	.st3{fill:#00DBC6;}
	.st4{fill:#FFA300;}
</style>
<title>sunny logo</title>
<path class="st0" d="M273.8,129.5c0,37.5-40.5,67.9-90.4,67.9S93.1,167,93.1,129.5s40.5-67.9,90.4-67.9S273.8,92,273.8,129.5z"/>
<path class="st1" d="M133.6,120.5h0.1l4.6-30.6h9.4V133h-6.4v-30.9h-0.1l-4.6,30.9h-6.4l-4.9-30.4h-0.1V133h-5.9V89.9h9.4
	L133.6,120.5z"/>
<path class="st1" d="M152.1,100.2c0-6.9,3.6-10.8,10.3-10.8s10.3,3.9,10.3,10.8v22.4c0,6.9-3.6,10.9-10.3,10.9s-10.3-3.9-10.3-10.8
	V100.2z M158.8,123.1c0,3.1,1.4,4.3,3.5,4.3s3.5-1.2,3.5-4.3V99.8c0-3.1-1.4-4.3-3.5-4.3s-3.5,1.2-3.5,4.3V123.1z"/>
<path class="st1" d="M187.2,125.1h0.1l5.1-35.2h6.2L192,133h-10.1l-6.6-43.1h6.8L187.2,125.1z"/>
<path class="st1" d="M201.8,89.9h6.8V133h-6.8L201.8,89.9z"/>
<path class="st1" d="M220.2,108.1h9.3v6.2h-9.3v12.6h11.7v6.2h-18.5V89.9h18.5V96h-11.7V108.1z"/>
<path class="st1" d="M144,141v26.5h-6.8v-17.9l-2.7,17.9h-4.8l-2.9-17.5v17.5h-6.8v-26.5h10c0.3,1.6,0.6,3.5,0.9,5.6l1.1,6.7
	l1.8-12.4L144,141z"/>
<path class="st1" d="M164.9,156.6c0,1.9,0,3.8-0.2,5.6c-0.2,1.1-0.6,2.1-1.3,3c-0.8,1-1.8,1.7-3,2.1c-1.4,0.5-2.9,0.8-4.4,0.7
	c-1.5,0-2.9-0.2-4.3-0.7c-1.2-0.4-2.3-1.1-3.1-2.1c-0.7-0.8-1.2-1.9-1.4-3c-0.2-1.9-0.3-3.8-0.2-5.7V152c0-1.9,0-3.8,0.2-5.6
	c0.2-1.1,0.6-2.1,1.3-3c0.8-1,1.8-1.7,3-2.1c2.8-1,5.9-1,8.7,0c1.2,0.4,2.3,1.1,3.1,2.1c0.7,0.8,1.2,1.9,1.4,3
	c0.2,1.9,0.3,3.8,0.2,5.7L164.9,156.6z M157.1,147.8c0.1-0.8,0-1.6-0.2-2.4c-0.2-0.4-0.6-0.6-1-0.5c-0.4,0-0.7,0.1-0.9,0.4
	c-0.3,0.8-0.4,1.6-0.3,2.5v12.4c-0.1,1,0,1.9,0.2,2.9c0.2,0.4,0.6,0.6,1,0.5c0.4,0,0.8-0.2,1-0.6c0.2-1,0.3-2,0.2-3L157.1,147.8z"/>
<path class="st1" d="M185.5,156.6c0,1.9,0,3.8-0.2,5.6c-0.2,1.1-0.6,2.1-1.3,3c-0.8,1-1.8,1.7-3,2.1c-1.4,0.5-2.9,0.8-4.4,0.7
	c-1.5,0-2.9-0.2-4.3-0.7c-1.2-0.4-2.3-1.1-3.1-2.1c-0.7-0.8-1.2-1.9-1.4-3c-0.2-1.9-0.3-3.8-0.3-5.7V152c0-1.9,0-3.8,0.2-5.6
	c0.2-1.1,0.6-2.1,1.3-3c0.8-1,1.8-1.7,3-2.1c1.4-0.5,2.9-0.8,4.4-0.7c1.5,0,2.9,0.2,4.3,0.7c1.2,0.4,2.2,1.1,3.1,2.1
	c0.7,0.8,1.2,1.9,1.4,3c0.2,1.9,0.3,3.8,0.2,5.7L185.5,156.6z M177.8,147.8c0.1-0.8,0-1.6-0.2-2.4c-0.2-0.4-0.6-0.6-1-0.5
	c-0.4,0-0.7,0.1-0.9,0.4c-0.3,0.8-0.4,1.6-0.3,2.5v12.4c-0.1,1,0,1.9,0.2,2.9c0.3,0.5,1,0.7,1.6,0.4c0.2-0.1,0.3-0.3,0.4-0.5
	c0.2-1,0.3-2,0.2-3L177.8,147.8z"/>
<path class="st1" d="M188.4,141h5.8c2.5-0.1,5.1,0.1,7.6,0.5c1.1,0.2,2.2,0.7,3,1.5c0.7,0.6,1.1,1.4,1.3,2.3
	c0.2,1.7,0.3,3.4,0.3,5.1v9.3c0.1,1.6-0.1,3.2-0.4,4.8c-0.2,0.8-0.7,1.4-1.3,1.9c-0.7,0.5-1.5,0.8-2.3,0.9c-1.4,0.2-2.8,0.3-4.2,0.3
	h-9.8L188.4,141z M196.2,145.6V163c1.1,0,1.8-0.2,2.1-0.6c0.3-1,0.5-2.2,0.4-3.3v-10.3c0-0.8,0-1.5-0.1-2.3
	c-0.1-0.3-0.3-0.6-0.6-0.7C197.4,145.6,196.8,145.5,196.2,145.6z"/>
<path class="st1" d="M214.1,162.1v5.4h-5.6v-5.4L214.1,162.1z"/>
<path class="st1" d="M221,162.1v5.4h-5.6v-5.4L221,162.1z"/>
<path class="st1" d="M228,162.1v5.4h-5.6v-5.4L228,162.1z"/>
<path class="st1" d="M234.7,158.3c0.2-0.8,0.6-1.6,1.1-2.3c0.4-0.6,1-1.3,1.6-2.1c0.5-0.6,0.9-1.1,1.2-1.5c0.3-0.4,0.5-0.8,0.7-1.3
	c0.2-0.5,0.3-1,0.3-1.6l0,0c0.1-0.8-0.2-1.6-0.8-2.2c-0.6-0.6-1.5-0.8-2.3-0.8c-0.9,0-1.7,0.3-2.3,1c-0.6,0.8-0.9,1.8-0.8,2.8l0,0
	h-3.8l0,0c0-1.3,0.3-2.5,0.9-3.7c0.5-1,1.4-1.8,2.4-2.3c1.1-0.6,2.4-0.8,3.6-0.8c1.3,0,2.6,0.2,3.8,0.7c1,0.4,1.8,1.2,2.4,2.1
	c0.6,1,0.9,2.1,0.8,3.3l0,0c0,0.7-0.1,1.4-0.3,2.1c-0.2,0.6-0.5,1.1-0.8,1.6c-0.4,0.6-0.9,1.1-1.3,1.7c-0.5,0.6-1,1.2-1.5,1.9
	c-0.4,0.6-0.8,1.3-1,2c-0.3,0.8-0.4,1.7-0.4,2.6h-3.8C234.2,160.4,234.4,159.3,234.7,158.3z M234.1,164h3.9v3.5h-3.9V164z"/>
<g>
	<path class="st0" d="M172.7,183.5h0.2v-1l0,0c-7,0-12.7-5.7-12.7-12.7c0,0,0,0,0,0l0,0l-70.5-0.1c-0.1,7-5.7,12.6-12.7,12.6l0,0
		v1.1h0.3c0.8,0,1.4,0.6,1.4,1.4c0,0.8-0.6,1.4-1.4,1.4c-0.1,0-0.2,0-0.3,0v1.2c0.1,0,0.2,0,0.3,0c0.8,0,1.4,0.6,1.4,1.4
		c0,0.8-0.6,1.4-1.4,1.4h-0.3v1.1h0.3c0.8,0,1.4,0.6,1.4,1.4c0,0.8-0.6,1.4-1.4,1.4c0,0,0,0,0,0c-0.1,0-0.2,0-0.3,0v1.1h0.3
		c0.8,0,1.4,0.6,1.4,1.4c0,0.8-0.6,1.4-1.4,1.4h-0.3v1.2h0.3c0.8,0,1.4,0.6,1.4,1.4c0,0.8-0.6,1.4-1.4,1.4c-0.1,0-0.2,0-0.3,0v1.2
		c0.1,0,0.2,0,0.3,0c0.8,0,1.4,0.6,1.4,1.4c0,0.8-0.6,1.4-1.4,1.4h-0.3v1l0,0c7,0,12.7,5.7,12.7,12.7l0,0l70.5,0.1
		c0-7,5.7-12.7,12.7-12.6l0,0v-1.1h-0.2c-0.8,0.1-1.4-0.5-1.5-1.2c-0.1-0.8,0.5-1.4,1.2-1.5c0.1,0,0.2,0,0.2,0h0.2v-1.1h-0.2
		c-0.8,0-1.4-0.6-1.4-1.4c0-0.7,0.6-1.4,1.3-1.4c0,0,0,0,0,0h0.2v-1.4h-0.2c-0.8,0.1-1.4-0.5-1.5-1.2c-0.1-0.8,0.5-1.4,1.2-1.5
		c0.1,0,0.2,0,0.2,0h0.2v-1.1h-0.2c-0.8,0-1.4-0.6-1.4-1.4c0-0.7,0.6-1.4,1.3-1.4c0,0,0,0,0,0h0.2v-1.1h-0.2c-0.8,0-1.4-0.6-1.4-1.4
		c0-0.8,0.6-1.4,1.4-1.4h0.2v-1.1h-0.2c-0.8,0-1.4-0.6-1.4-1.4C171.4,184.1,172,183.4,172.7,183.5L172.7,183.5z"/>
	<path class="st2" d="M94,214.1c-1.7-5.8-6.2-10.3-12-12v-15.4c5.8-1.7,10.3-6.2,12-11.9l61.9,0.1c1.7,5.8,6.2,10.3,12,12v15.4
		c-5.8,1.7-10.3,6.2-12,11.9L94,214.1z"/>
	<path class="st1" d="M95,212.6c-2-5.4-6.2-9.6-11.6-11.6v-13.3c5.4-1.9,9.6-6.1,11.6-11.5l59.8,0.1c2,5.4,6.2,9.6,11.6,11.6v13.3
		c-5.4,1.9-9.6,6.2-11.6,11.5L95,212.6z"/>
	<polygon class="st3" points="91.1,197.4 88.1,199 88.7,195.7 86.3,193.3 89.6,192.8 91.1,189.8 92.6,192.8 96,193.3 93.6,195.7 
		94.1,199 	"/>
	<polygon class="st3" points="158.8,197.5 155.7,199.1 156.3,195.8 153.9,193.4 157.3,192.9 158.8,189.8 160.3,192.9 163.6,193.4 
		161.2,195.8 161.8,199.1 	"/>
	<path class="st4" d="M99.8,189.5h7.9v1.5h-7.9V189.5z M102.9,190.4h1.6l0.1,10.2H103L102.9,190.4z"/>
	<path class="st4" d="M110.8,200.6h-1.6l-0.1-11.2h1.6L110.8,200.6z"/>
	<path class="st4" d="M116,200.7l-0.9-0.5c-0.6-0.3-1.1-0.8-1.4-1.5c-0.3-0.7-0.5-1.4-0.5-2.2v-3.1c0-0.8,0.1-1.5,0.5-2.2
		c0.3-0.6,0.8-1.1,1.4-1.5c0.6-0.3,1.3-0.5,2-0.5c0.6,0,1.2,0.1,1.8,0.4c0.5,0.3,1,0.7,1.4,1.2c0.4,0.5,0.6,1.1,0.7,1.7h-1.6
		c-0.1-0.3-0.3-0.7-0.5-0.9c-0.2-0.3-0.5-0.5-0.8-0.6c-0.3-0.1-0.6-0.2-0.9-0.2c-0.9,0-1.6,0.5-2,1.3c-0.2,0.4-0.3,0.9-0.3,1.4v3.1
		c0,0.5,0.1,0.9,0.3,1.4c0.2,0.4,0.4,0.7,0.8,0.9c0.4,0.2,0.8,0.3,1.2,0.3c0.3,0,0.7-0.1,1-0.2c0.3-0.1,0.6-0.4,0.8-0.6
		c0.2-0.3,0.4-0.6,0.5-1h1.6c-0.1,0.6-0.4,1.2-0.7,1.8c-0.3,0.5-0.8,0.9-1.3,1.2c-0.5,0.3-1.1,0.4-1.8,0.4L116,200.7z"/>
	<path class="st4" d="M123,189.4h1.6l0.1,11.1h-1.6L123,189.4z M124.3,195.6l4.9-6.3h1.9l-7,8.6L124.3,195.6z M126.2,194.5l1.2-1.1
		l4.3,7.1h-1.9L126.2,194.5z"/>
	<path class="st4" d="M133.3,189.3h1.6l0.1,11.1h-1.6L133.3,189.3z M134.1,189.3h6.4v1.4h-6.4V189.3z M134.1,194.2h5.6v1.5h-5.6
		V194.2z M134.1,199h6.4v1.5h-6.4V199z"/>
	<path class="st4" d="M141.5,189.3h7.9v1.5h-7.9V189.3z M144.6,190.2h1.6l0.1,10.2h-1.6L144.6,190.2z"/>
</g>
</svg>
