<?xml version="1.0" encoding="utf-8"?>
<!-- Generator: Adobe Illustrator 17.0.0, SVG Export Plug-In . SVG Version: 6.00 Build 0)  -->
<!DOCTYPE svg PUBLIC "-//W3C//DTD SVG 1.1//EN" "http://www.w3.org/Graphics/SVG/1.1/DTD/svg11.dtd">
<svg version="1.1" id="图层_1" xmlns="http://www.w3.org/2000/svg" xmlns:xlink="http://www.w3.org/1999/xlink" x="0px" y="0px"
	 width="1000px" height="1000px" viewBox="0 0 1000 1000" enable-background="new 0 0 1000 1000" xml:space="preserve">
<path fill="#757575" d="M799.328,321.898c-20.842,9.098-43.45,15.635-66.821,18.163c24.073-14.524,42.382-37.405,51.007-64.665
	c-22.273,13.444-47.41,23.251-73.612,28.34c-21.176-22.917-51.34-37.068-84.732-37.068c-64.292,0-115.998,52.703-115.998,117.368
	c0,9.098,1.098,18.195,2.865,26.924c-96.254-5.055-182.083-51.592-239.183-122.862c-10.054,17.423-15.816,37.438-15.816,59.274
	c0,40.707,20.476,76.662,51.706,97.756c-19.01-0.741-36.99-6.198-52.438-14.892v1.448c0,57.015,39.851,104.295,93.021,115.212
	c-9.69,2.527-20.11,3.975-30.53,3.975c-7.523,0-14.717-0.709-21.875-1.82c14.717,46.539,57.464,80.336,108.439,81.449
	c-39.887,31.607-89.794,50.14-144.028,50.14c-9.69,0-18.679-0.335-28.001-1.414c51.373,33.427,112.401,52.703,178.155,52.703
	c213.313,0,330.043-178.831,330.043-334.011c0-5.121,0-10.174-0.336-15.297C763.771,365.906,783.514,345.15,799.328,321.898z M0,500
	C0,223.858,223.797,0,500,0c276.142,0,500,223.797,500,500c0,276.142-223.797,500-500,500C223.858,1000,0,776.203,0,500z"/>
</svg>
